<?xml version="1.0" encoding="UTF-8" standalone="no"?>
<svg
   viewBox="3 2 95.996928 95.996928"
   version="1.1"
   id="svg1"
   sodipodi:docname="smoothie-blender.svg"
   inkscape:export-filename="svg-path.svg"
   inkscape:export-xdpi="96"
   inkscape:export-ydpi="96"
   inkscape:version="1.3.1 (91b66b0783, 2023-11-16)"
   width="1in"
   height="1in"
   xmlns:inkscape="http://www.inkscape.org/namespaces/inkscape"
   xmlns:sodipodi="http://sodipodi.sourceforge.net/DTD/sodipodi-0.dtd"
   xmlns="http://www.w3.org/2000/svg"
   xmlns:svg="http://www.w3.org/2000/svg">
  <defs
     id="defs1" />
  <sodipodi:namedview
     id="namedview1"
     pagecolor="#ffffff"
     bordercolor="#000000"
     borderopacity="0.25"
     inkscape:showpageshadow="2"
     inkscape:pageopacity="0.0"
     inkscape:pagecheckerboard="0"
     inkscape:deskcolor="#d1d1d1"
     showgrid="false"
     inkscape:zoom="2.8284271"
     inkscape:cx="-24.395184"
     inkscape:cy="112.60675"
     inkscape:window-width="1920"
     inkscape:window-height="1051"
     inkscape:window-x="-9"
     inkscape:window-y="-9"
     inkscape:window-maximized="1"
     inkscape:current-layer="svg1"
     inkscape:document-units="in" />
  <circle
     style="fill:#3b82f6;fill-opacity:1;stroke:none;stroke-width:6.71938;stroke-opacity:0;paint-order:stroke markers fill"
     id="path8"
     cx="44.267784"
     cy="47.458805"
     r="6.6907406" />
  <circle
     style="fill:#3b82f6;fill-opacity:1;stroke:none;stroke-width:6.71938;stroke-opacity:0;paint-order:stroke markers fill"
     id="path9"
     cx="63.494713"
     cy="56.723637"
     r="6.6210451" />
  <circle
     style="fill:#3b82f6;fill-opacity:1;stroke:none;stroke-width:4.92756;stroke-opacity:0;paint-order:stroke markers fill"
     id="path10"
     cy="33.364616"
     cx="50.003128"
     r="6.1331797" />
  <circle
     style="fill:#3b82f6;fill-opacity:1;stroke:none;stroke-width:4.92756;stroke-opacity:0;paint-order:stroke markers fill"
     id="path10-6"
     cx="68.019333"
     cy="41.3717"
     r="6.1331797" />
  <path
     d="M 72.909433,62.659729 80.622992,12.624692 H 64.123396 v -4.1249 h -16.4996 v 4.1249 h -20.6245 c -4.53739,0 -8.2498,3.71241 -8.2498,8.2498 v 16.4996 c 0,4.53739 3.71241,8.2498 8.2498,8.2498 h 9.198527 l 2.639936,17.035837 c -4.661137,3.794908 -7.713563,9.48727 -7.713563,15.963367 v 4.1249 c 0,4.53739 3.71241,8.2498 8.2498,8.2498 h 32.9992 c 4.53739,0 8.249796,-3.71241 8.249796,-8.2498 v -4.1249 c 0,-6.476097 -3.052422,-12.168459 -7.713559,-15.963367 M 26.999296,37.374092 v -16.4996 h 5.403619 l 2.557438,16.4996 h -7.961057 m 28.8743,41.249004 c -2.268695,0 -4.1249,-1.856209 -4.1249,-4.124904 0,-2.268695 1.856205,-4.1249 4.1249,-4.1249 2.268695,0 4.1249,1.856205 4.1249,4.1249 0,2.268695 -1.856205,4.124904 -4.1249,4.124904 M 65.319617,57.998592 H 46.468824 l -5.733611,-37.1241 h 30.276766 z"
     fill="#3b82f6"
     id="path1"
     style="stroke-width:4.1249" />
  <path
     style="fill:#3b82f6;fill-opacity:1;stroke:none;stroke-width:1.55902;stroke-dasharray:none;stroke-opacity:1;paint-order:stroke markers fill"
     d="M 56.942473,46.204905 53.457712,45.856433"
     id="path12" />
  <path
     style="fill:#3b82f6;fill-opacity:1;stroke:none;stroke-width:1.55902;stroke-dasharray:none;stroke-opacity:1;paint-order:stroke markers fill"
     d="m 51.994115,49.75936 8.154338,-2.160553"
     id="path13" />
  <path
     style="fill:#3b82f6;fill-opacity:1;stroke:none;stroke-width:1.55902;stroke-dasharray:none;stroke-opacity:1;paint-order:stroke markers fill"
     d="m 57.709123,43.06862 c -0.09293,0 -0.185868,0 -0.278761,0"
     id="path14" />
  <path
     style="fill:#3b82f6;fill-opacity:1;stroke:none;stroke-width:1.55902;stroke-dasharray:none;stroke-opacity:1;paint-order:stroke markers fill"
     d="M 48.923267,60.136375 67.249245,8.507138 70.747639,8.512038 52.725245,61.042879 Z"
     id="path15"
     sodipodi:nodetypes="ccccc" />
</svg>
